<svg width="130" height="130" viewBox="0 0 130 130" fill="none" xmlns="http://www.w3.org/2000/svg">
<circle cx="65" cy="65" r="64.5" fill="#141416" stroke="white"/>
<path d="M67.7778 81H58.6667V53.6667H67.7778V58.2222C68.7369 57.0019 69.9542 56.0091 71.3424 55.3148C72.7306 54.6205 74.2552 54.242 75.8069 54.2065C78.5206 54.2216 81.1176 55.3122 83.0284 57.2392C84.9392 59.1662 86.0078 61.7724 86 64.4861V81H76.8889V65.625C76.7126 64.394 76.0977 63.2681 75.1573 62.4545C74.2169 61.6409 73.0142 61.1943 71.7707 61.197C71.2141 61.2146 70.6669 61.3444 70.1617 61.5787C69.6566 61.8131 69.204 62.147 68.8311 62.5605C68.4582 62.9741 68.1727 63.4587 67.9917 63.9853C67.8107 64.5119 67.7379 65.0696 67.7778 65.625V81ZM54.1111 81H45V53.6667H54.1111V81ZM49.5556 49.1111C48.3473 49.1111 47.1886 48.6312 46.3343 47.7768C45.48 46.9225 45 45.7638 45 44.5556C45 43.3473 45.48 42.1886 46.3343 41.3343C47.1886 40.48 48.3473 40 49.5556 40C50.7638 40 51.9225 40.48 52.7768 41.3343C53.6311 42.1886 54.1111 43.3473 54.1111 44.5556C54.1111 45.7638 53.6311 46.9225 52.7768 47.7768C51.9225 48.6312 50.7638 49.1111 49.5556 49.1111Z" fill="white"/>
</svg>
