<svg width="480" height="90" viewBox="0 0 480 90" fill="none" xmlns="http://www.w3.org/2000/svg">
<g clip-path="url(#clip0_19_37)">
<path d="M113.846 58.4463L96.1475 40.8492L97.1263 41.1985L97.1933 57.6537H93.8011V33.9045H93.9218L111.365 51.5015L110.601 51.3134L110.534 34.6701H113.886V58.4463H113.819H113.846Z" fill="white"/>
<path d="M130.686 57.6537L140.809 33.6761H141.037L151.106 57.6537H147.245L139.897 39.0089L142.297 37.397L134.038 57.6537H130.686ZM136.867 49.0298H145.059L146.172 51.9179H135.848L136.854 49.0298H136.867Z" fill="white"/>
<path d="M167.906 57.6537V34.6701H174.261C176.541 34.6701 178.485 35.0194 180.08 35.7045C181.689 36.3895 182.977 37.3164 183.955 38.4582C184.934 39.6134 185.645 40.8895 186.087 42.2731C186.53 43.6701 186.758 45.0671 186.758 46.4641C186.758 48.1836 186.463 49.7149 185.859 51.0985C185.256 52.4686 184.425 53.6507 183.379 54.6313C182.32 55.6119 181.113 56.3642 179.745 56.888C178.378 57.4119 176.93 57.6671 175.415 57.6671H167.92L167.906 57.6537ZM171.258 54.3895H174.744C175.991 54.3895 177.131 54.2149 178.177 53.8522C179.222 53.4895 180.134 52.9657 180.898 52.2671C181.663 51.5686 182.253 50.7089 182.668 49.7015C183.084 48.6806 183.285 47.5388 183.285 46.2492C183.285 44.8119 183.057 43.5761 182.601 42.5283C182.145 41.4806 181.528 40.6209 180.737 39.9224C179.946 39.2373 179.075 38.7268 178.109 38.4044C177.144 38.0821 176.179 37.9074 175.187 37.9074H171.258V54.3895Z" fill="white"/>
<path d="M207.54 49.4462C207.54 50.4134 207.781 51.3 208.264 52.0791C208.746 52.8582 209.39 53.4895 210.194 53.9462C210.999 54.4164 211.911 54.6447 212.916 54.6447C213.922 54.6447 214.901 54.4164 215.718 53.9462C216.536 53.4761 217.18 52.8582 217.649 52.0791C218.118 51.3 218.36 50.4134 218.36 49.4462V34.6701H221.685V49.5134C221.685 51.2059 221.296 52.6835 220.518 53.9328C219.741 55.1821 218.682 56.1626 217.341 56.8612C216 57.5597 214.525 57.9089 212.93 57.9089C211.334 57.9089 209.806 57.5597 208.478 56.8612C207.164 56.1626 206.105 55.1821 205.327 53.9328C204.55 52.6835 204.161 51.2059 204.161 49.5134V34.6701H207.553V49.4462H207.54Z" fill="white"/>
<path d="M252.416 39.0492C251.611 38.6462 250.753 38.297 249.815 37.988C248.889 37.6791 247.991 37.5313 247.12 37.5313C245.94 37.5313 245.001 37.8 244.304 38.3373C243.607 38.8746 243.258 39.6134 243.258 40.5403C243.258 41.1985 243.486 41.7627 243.955 42.2597C244.425 42.7433 245.015 43.1731 245.752 43.5492C246.489 43.9253 247.267 44.2477 248.098 44.5433C248.796 44.7985 249.479 45.094 250.177 45.4433C250.874 45.7925 251.491 46.2223 252.04 46.7328C252.59 47.2432 253.046 47.8746 253.368 48.6134C253.689 49.3656 253.864 50.2925 253.864 51.394C253.864 52.6029 253.569 53.691 252.965 54.6716C252.362 55.6522 251.491 56.4447 250.351 57.0358C249.211 57.6268 247.857 57.9224 246.275 57.9224C245.283 57.9224 244.331 57.8149 243.432 57.5865C242.521 57.3582 241.663 57.0761 240.858 56.7134C240.04 56.3507 239.316 55.9477 238.686 55.4776L240.174 52.8179C240.684 53.2209 241.26 53.5701 241.917 53.8791C242.574 54.188 243.258 54.4432 243.955 54.6447C244.653 54.8462 245.336 54.9403 245.966 54.9403C246.664 54.9403 247.347 54.8194 248.031 54.5776C248.702 54.3358 249.265 53.9597 249.721 53.4358C250.177 52.9119 250.404 52.2403 250.404 51.394C250.404 50.6686 250.203 50.0641 249.801 49.5671C249.399 49.0701 248.889 48.6403 248.246 48.2776C247.616 47.9149 246.918 47.6059 246.154 47.3238C245.457 47.0686 244.733 46.7731 243.982 46.4373C243.231 46.1015 242.547 45.685 241.904 45.2015C241.274 44.7179 240.764 44.1134 240.375 43.4149C239.987 42.7164 239.785 41.8298 239.785 40.7955C239.785 39.5731 240.08 38.4985 240.657 37.5582C241.234 36.6313 242.038 35.8925 243.084 35.3686C244.116 34.8447 245.296 34.5627 246.623 34.5492C248.179 34.5492 249.533 34.7373 250.673 35.1C251.812 35.4627 252.831 35.9328 253.716 36.4836L252.416 39.0492Z" fill="white"/>
<path d="M272.085 57.6537V35.1403H277.622C279.794 35.1403 281.645 35.4895 283.173 36.1746C284.702 36.8597 285.949 37.7597 286.887 38.888C287.839 40.003 288.536 41.2388 288.979 42.5686C289.421 43.8985 289.649 45.2283 289.649 46.5313C289.649 48.2373 289.354 49.7821 288.764 51.1388C288.174 52.4955 287.37 53.6641 286.337 54.6447C285.318 55.6119 284.152 56.3641 282.838 56.8746C281.524 57.3985 280.143 57.6537 278.695 57.6537H272.085ZM273.64 56.1627H278.293C279.647 56.1627 280.907 55.9343 282.087 55.491C283.267 55.0477 284.313 54.403 285.211 53.5567C286.109 52.7104 286.807 51.6895 287.316 50.494C287.826 49.2985 288.08 47.9418 288.08 46.4238C288.08 45.1343 287.866 43.8985 287.437 42.7298C287.008 41.5612 286.351 40.5134 285.493 39.6C284.621 38.6865 283.562 37.9746 282.302 37.4507C281.041 36.9268 279.553 36.6582 277.877 36.6582H273.667V56.1627H273.64Z" fill="white"/>
<path d="M308.045 35.1403H309.6V57.6537H308.045V35.1403Z" fill="white"/>
<path d="M346.364 56.0686C345.989 56.3239 345.533 56.5656 344.983 56.7806C344.434 56.9955 343.87 57.197 343.254 57.3716C342.637 57.5462 342.02 57.6672 341.363 57.7746C340.72 57.8687 340.116 57.9224 339.54 57.9224C337.77 57.9224 336.174 57.6269 334.74 57.0492C333.318 56.4716 332.098 55.6656 331.079 54.6447C330.06 53.6239 329.296 52.4283 328.746 51.0582C328.21 49.7015 327.942 48.2239 327.942 46.6388C327.942 44.9328 328.237 43.3477 328.84 41.9104C329.444 40.4731 330.275 39.2239 331.321 38.1895C332.38 37.1418 333.6 36.3358 334.994 35.7582C336.389 35.194 337.864 34.8985 339.419 34.8985C340.599 34.8985 341.712 35.0462 342.758 35.3418C343.803 35.6373 344.742 36.0403 345.587 36.5507L345.023 37.9477C344.541 37.6522 343.991 37.397 343.374 37.1686C342.758 36.9403 342.141 36.7791 341.497 36.6448C340.854 36.5239 340.21 36.4567 339.58 36.4567C338.145 36.4567 336.818 36.7119 335.598 37.2224C334.378 37.7328 333.305 38.4447 332.407 39.3447C331.508 40.2447 330.798 41.3194 330.288 42.5418C329.779 43.7642 329.524 45.094 329.524 46.5313C329.524 47.9686 329.765 49.2179 330.235 50.4134C330.704 51.6089 331.388 52.6567 332.259 53.5567C333.131 54.4567 334.19 55.1552 335.41 55.6522C336.63 56.1492 337.998 56.391 339.486 56.391C340.371 56.391 341.296 56.2836 342.275 56.0686C343.24 55.8537 344.085 55.5582 344.782 55.1552V48.9089H339.714V47.4179H346.324V56.0686H346.364Z" fill="white"/>
<path d="M365.524 35.1403H367.079V57.6537H365.524V35.1403Z" fill="white"/>
<path d="M385.073 35.1403H399.794V36.6313H393.184V57.6537H391.629V36.6313H385.073V35.1403Z" fill="white"/>
<path d="M414.168 57.6537L423.66 34.1597H423.781L433.274 57.6537H431.531L423.272 36.6313L424.344 36.0269L415.709 57.6537H414.154H414.168ZM418.753 48.7477H428.729L429.171 50.2119H418.378L418.753 48.7477Z" fill="white"/>
<path d="M451.133 35.1403H452.688V56.1627H464.997V57.6537H451.133V35.1403Z" fill="white"/>
<path d="M153.09 49.688V49.701L153.077 49.688H153.09Z" fill="black"/>
<path d="M58.8067 38.485V57.6403H49.2469V38.4179C49.2469 35.1134 46.5788 32.4268 43.267 32.4268H33.6402V57.6268H24.0804V22.8492H43.2C51.8212 22.8492 58.7933 29.8477 58.7933 38.4716L58.8067 38.485Z" fill="url(#paint0_linear_19_37)"/>
<path d="M33.8011 65.7403H49.2603L41.7251 79.2269L33.8011 65.7403Z" fill="url(#paint1_linear_19_37)"/>
</g>
<defs>
<linearGradient id="paint0_linear_19_37" x1="21.4927" y1="59.7492" x2="53.1524" y2="28.9261" gradientUnits="userSpaceOnUse">
<stop stop-color="#A434F0"/>
<stop offset="0.95" stop-color="#00F3FF"/>
</linearGradient>
<linearGradient id="paint1_linear_19_37" x1="35.638" y1="75.7881" x2="56.6631" y2="43.2357" gradientUnits="userSpaceOnUse">
<stop stop-color="#A434F0"/>
<stop offset="0.45" stop-color="#00F3FF"/>
</linearGradient>
<clipPath id="clip0_19_37">
<rect width="480" height="90" fill="white"/>
</clipPath>
</defs>
</svg>
